<svg version="1.1" xmlns="http://www.w3.org/2000/svg" xmlns:xlink="http://www.w3.org/1999/xlink" width="57.41376" height="789.82653" viewBox="0,0,57.41376,789.82653"><g transform="translate(-204.53637,374.82317)"><g data-paper-data="{&quot;isPaintingLayer&quot;:true}" fill="#642ada" fill-rule="nonzero" stroke="none" stroke-linecap="butt" stroke-linejoin="miter" stroke-miterlimit="10" stroke-dasharray="" stroke-dashoffset="0" style="mix-blend-mode: normal"><g><path d="M206.03789,211.36566l29.27955,-73.99741l25.1312,9.944l-29.27955,73.99741z" stroke-width="NaN"/><path d="M235.31743,285.87423l-29.27955,-73.99742l25.13119,-9.944l29.27955,73.99742z" data-paper-data="{&quot;index&quot;:null}" stroke-width="NaN"/><path d="M207.53939,340.49479l29.27955,-73.99741l25.1312,9.944l-29.27955,73.99741z" data-paper-data="{&quot;index&quot;:null}" stroke-width="NaN"/><path d="M236.81894,415.00336l-29.27955,-73.99742l25.13119,-9.944l29.27956,73.99742z" data-paper-data="{&quot;index&quot;:null}" stroke-width="NaN"/></g><g><path d="M204.53639,-300.82576l29.27955,-73.99741l25.1312,9.944l-29.27955,73.99741z" stroke-width="NaN"/><path d="M233.81593,-226.31719l-29.27955,-73.99742l25.13119,-9.944l29.27955,73.99742z" data-paper-data="{&quot;index&quot;:null}" stroke-width="NaN"/><path d="M206.03789,-171.69663l29.27955,-73.99741l25.1312,9.944l-29.27955,73.99741z" data-paper-data="{&quot;index&quot;:null}" stroke-width="NaN"/><path d="M235.31744,-97.18806l-29.27955,-73.99742l25.13119,-9.944l29.27956,73.99742z" data-paper-data="{&quot;index&quot;:null}" stroke-width="NaN"/></g><g><path d="M204.53639,-42.5675l29.27955,-73.99742l25.13119,9.944l-29.27955,73.99742z" stroke-width="NaN"/><path d="M233.81593,31.94106l-29.27955,-73.99742l25.13119,-9.944l29.27955,73.99742z" data-paper-data="{&quot;index&quot;:null}" stroke-width="NaN"/><path d="M206.03789,86.56163l29.27955,-73.99741l25.13119,9.944l-29.27955,73.99741z" data-paper-data="{&quot;index&quot;:null}" stroke-width="NaN"/><path d="M235.31744,161.07019l-29.27955,-73.99742l25.13119,-9.944l29.27955,73.99741z" data-paper-data="{&quot;index&quot;:null}" stroke-width="NaN"/></g></g></g></svg>